<mxfile host="app.diagrams.net" modified="2022-03-28T09:05:22.733Z" agent="5.0 (Windows NT 10.0; Win64; x64) AppleWebKit/537.36 (KHTML, like Gecko) Chrome/99.0.4844.74 Safari/537.36 Edg/99.0.1150.55" etag="K09ZSXsNBtw0KJGn8mFm" version="17.1.3" type="github">
  <diagram id="iJCV0v0PYisE7hr-OhOX" name="Page-1">
    <mxGraphModel dx="530" dy="340" grid="1" gridSize="10" guides="1" tooltips="1" connect="1" arrows="1" fold="1" page="1" pageScale="1" pageWidth="827" pageHeight="1169" math="0" shadow="0">
      <root>
        <mxCell id="0" />
        <mxCell id="1" parent="0" />
        <mxCell id="kN6tLRm5acW-3HaWJ-zb-11" style="edgeStyle=orthogonalEdgeStyle;rounded=0;orthogonalLoop=1;jettySize=auto;html=1;exitX=1;exitY=0.5;exitDx=0;exitDy=0;entryX=0;entryY=0.5;entryDx=0;entryDy=0;" edge="1" parent="1" source="kN6tLRm5acW-3HaWJ-zb-1" target="kN6tLRm5acW-3HaWJ-zb-6">
          <mxGeometry relative="1" as="geometry" />
        </mxCell>
        <mxCell id="kN6tLRm5acW-3HaWJ-zb-1" value="" style="ellipse;whiteSpace=wrap;html=1;aspect=fixed;shadow=0;fillColor=#000000;" vertex="1" parent="1">
          <mxGeometry x="200" y="120" width="40" height="40" as="geometry" />
        </mxCell>
        <mxCell id="kN6tLRm5acW-3HaWJ-zb-2" value="" style="ellipse;whiteSpace=wrap;html=1;aspect=fixed;fillColor=#000000;" vertex="1" parent="1">
          <mxGeometry x="200" y="200" width="40" height="40" as="geometry" />
        </mxCell>
        <mxCell id="kN6tLRm5acW-3HaWJ-zb-3" value="" style="ellipse;whiteSpace=wrap;html=1;aspect=fixed;fillColor=#000000;" vertex="1" parent="1">
          <mxGeometry x="200" y="280" width="40" height="40" as="geometry" />
        </mxCell>
        <mxCell id="kN6tLRm5acW-3HaWJ-zb-6" value="" style="ellipse;whiteSpace=wrap;html=1;aspect=fixed;" vertex="1" parent="1">
          <mxGeometry x="480" y="120" width="40" height="40" as="geometry" />
        </mxCell>
        <mxCell id="kN6tLRm5acW-3HaWJ-zb-7" value="" style="ellipse;whiteSpace=wrap;html=1;aspect=fixed;" vertex="1" parent="1">
          <mxGeometry x="480" y="200" width="40" height="40" as="geometry" />
        </mxCell>
        <mxCell id="kN6tLRm5acW-3HaWJ-zb-8" value="" style="ellipse;whiteSpace=wrap;html=1;aspect=fixed;" vertex="1" parent="1">
          <mxGeometry x="480" y="280" width="40" height="40" as="geometry" />
        </mxCell>
        <mxCell id="kN6tLRm5acW-3HaWJ-zb-13" value="" style="endArrow=classic;html=1;rounded=0;exitX=1;exitY=0.5;exitDx=0;exitDy=0;entryX=0;entryY=0.5;entryDx=0;entryDy=0;" edge="1" parent="1" source="kN6tLRm5acW-3HaWJ-zb-1" target="kN6tLRm5acW-3HaWJ-zb-7">
          <mxGeometry width="50" height="50" relative="1" as="geometry">
            <mxPoint x="370" y="360" as="sourcePoint" />
            <mxPoint x="420" y="310" as="targetPoint" />
          </mxGeometry>
        </mxCell>
        <mxCell id="kN6tLRm5acW-3HaWJ-zb-14" value="" style="endArrow=classic;html=1;rounded=0;exitX=1;exitY=0.5;exitDx=0;exitDy=0;entryX=0;entryY=0.5;entryDx=0;entryDy=0;" edge="1" parent="1" source="kN6tLRm5acW-3HaWJ-zb-1" target="kN6tLRm5acW-3HaWJ-zb-8">
          <mxGeometry width="50" height="50" relative="1" as="geometry">
            <mxPoint x="370" y="360" as="sourcePoint" />
            <mxPoint x="420" y="310" as="targetPoint" />
          </mxGeometry>
        </mxCell>
        <mxCell id="kN6tLRm5acW-3HaWJ-zb-17" value="" style="endArrow=classic;html=1;rounded=0;exitX=1;exitY=0.5;exitDx=0;exitDy=0;entryX=0;entryY=0.5;entryDx=0;entryDy=0;" edge="1" parent="1" source="kN6tLRm5acW-3HaWJ-zb-2" target="kN6tLRm5acW-3HaWJ-zb-6">
          <mxGeometry width="50" height="50" relative="1" as="geometry">
            <mxPoint x="370" y="360" as="sourcePoint" />
            <mxPoint x="420" y="310" as="targetPoint" />
          </mxGeometry>
        </mxCell>
        <mxCell id="kN6tLRm5acW-3HaWJ-zb-18" value="" style="endArrow=classic;html=1;rounded=0;exitX=1;exitY=0.5;exitDx=0;exitDy=0;entryX=0;entryY=0.5;entryDx=0;entryDy=0;" edge="1" parent="1" source="kN6tLRm5acW-3HaWJ-zb-2" target="kN6tLRm5acW-3HaWJ-zb-7">
          <mxGeometry width="50" height="50" relative="1" as="geometry">
            <mxPoint x="370" y="360" as="sourcePoint" />
            <mxPoint x="420" y="310" as="targetPoint" />
          </mxGeometry>
        </mxCell>
        <mxCell id="kN6tLRm5acW-3HaWJ-zb-19" value="" style="endArrow=classic;html=1;rounded=0;exitX=1;exitY=0.5;exitDx=0;exitDy=0;entryX=0;entryY=0.5;entryDx=0;entryDy=0;" edge="1" parent="1" source="kN6tLRm5acW-3HaWJ-zb-2" target="kN6tLRm5acW-3HaWJ-zb-8">
          <mxGeometry width="50" height="50" relative="1" as="geometry">
            <mxPoint x="370" y="360" as="sourcePoint" />
            <mxPoint x="420" y="310" as="targetPoint" />
          </mxGeometry>
        </mxCell>
        <mxCell id="kN6tLRm5acW-3HaWJ-zb-20" value="" style="endArrow=classic;html=1;rounded=0;exitX=1;exitY=0.5;exitDx=0;exitDy=0;entryX=0;entryY=0.5;entryDx=0;entryDy=0;" edge="1" parent="1" source="kN6tLRm5acW-3HaWJ-zb-3" target="kN6tLRm5acW-3HaWJ-zb-6">
          <mxGeometry width="50" height="50" relative="1" as="geometry">
            <mxPoint x="370" y="360" as="sourcePoint" />
            <mxPoint x="420" y="310" as="targetPoint" />
          </mxGeometry>
        </mxCell>
        <mxCell id="kN6tLRm5acW-3HaWJ-zb-21" value="" style="endArrow=classic;html=1;rounded=0;exitX=1;exitY=0.5;exitDx=0;exitDy=0;entryX=0;entryY=0.5;entryDx=0;entryDy=0;" edge="1" parent="1" source="kN6tLRm5acW-3HaWJ-zb-3" target="kN6tLRm5acW-3HaWJ-zb-7">
          <mxGeometry width="50" height="50" relative="1" as="geometry">
            <mxPoint x="370" y="360" as="sourcePoint" />
            <mxPoint x="420" y="310" as="targetPoint" />
          </mxGeometry>
        </mxCell>
        <mxCell id="kN6tLRm5acW-3HaWJ-zb-22" value="" style="endArrow=classic;html=1;rounded=0;" edge="1" parent="1">
          <mxGeometry width="50" height="50" relative="1" as="geometry">
            <mxPoint x="240" y="300" as="sourcePoint" />
            <mxPoint x="480" y="300" as="targetPoint" />
          </mxGeometry>
        </mxCell>
        <mxCell id="kN6tLRm5acW-3HaWJ-zb-23" value="" style="ellipse;whiteSpace=wrap;html=1;shadow=0;fillColor=none;" vertex="1" parent="1">
          <mxGeometry x="160" y="80" width="120" height="280" as="geometry" />
        </mxCell>
        <mxCell id="kN6tLRm5acW-3HaWJ-zb-24" value="" style="ellipse;whiteSpace=wrap;html=1;shadow=0;fillColor=none;" vertex="1" parent="1">
          <mxGeometry x="440" y="80" width="120" height="280" as="geometry" />
        </mxCell>
        <mxCell id="kN6tLRm5acW-3HaWJ-zb-25" value="&lt;font face=&quot;Times New Roman&quot;&gt;x1&lt;/font&gt;" style="text;html=1;strokeColor=none;fillColor=none;align=center;verticalAlign=middle;whiteSpace=wrap;rounded=0;shadow=0;" vertex="1" parent="1">
          <mxGeometry x="160" y="130" width="50" height="25" as="geometry" />
        </mxCell>
        <mxCell id="kN6tLRm5acW-3HaWJ-zb-26" value="&lt;font face=&quot;Times New Roman&quot;&gt;x2&lt;/font&gt;" style="text;html=1;strokeColor=none;fillColor=none;align=center;verticalAlign=middle;whiteSpace=wrap;rounded=0;shadow=0;" vertex="1" parent="1">
          <mxGeometry x="160" y="207.5" width="50" height="25" as="geometry" />
        </mxCell>
        <mxCell id="kN6tLRm5acW-3HaWJ-zb-27" value="&lt;font face=&quot;Times New Roman&quot;&gt;x3&lt;/font&gt;" style="text;html=1;strokeColor=none;fillColor=none;align=center;verticalAlign=middle;whiteSpace=wrap;rounded=0;shadow=0;" vertex="1" parent="1">
          <mxGeometry x="160" y="287.5" width="50" height="25" as="geometry" />
        </mxCell>
        <mxCell id="kN6tLRm5acW-3HaWJ-zb-28" value="&lt;font face=&quot;Times New Roman&quot;&gt;y1&lt;/font&gt;" style="text;html=1;strokeColor=none;fillColor=none;align=center;verticalAlign=middle;whiteSpace=wrap;rounded=0;shadow=0;" vertex="1" parent="1">
          <mxGeometry x="510" y="127.5" width="50" height="25" as="geometry" />
        </mxCell>
        <mxCell id="kN6tLRm5acW-3HaWJ-zb-29" value="&lt;font face=&quot;Times New Roman&quot;&gt;y2&lt;/font&gt;" style="text;html=1;strokeColor=none;fillColor=none;align=center;verticalAlign=middle;whiteSpace=wrap;rounded=0;shadow=0;" vertex="1" parent="1">
          <mxGeometry x="510" y="207.5" width="50" height="25" as="geometry" />
        </mxCell>
        <mxCell id="kN6tLRm5acW-3HaWJ-zb-30" value="&lt;font face=&quot;Times New Roman&quot;&gt;y3&lt;/font&gt;" style="text;html=1;strokeColor=none;fillColor=none;align=center;verticalAlign=middle;whiteSpace=wrap;rounded=0;shadow=0;" vertex="1" parent="1">
          <mxGeometry x="510" y="287.5" width="50" height="25" as="geometry" />
        </mxCell>
        <mxCell id="kN6tLRm5acW-3HaWJ-zb-31" value="&lt;font face=&quot;Times New Roman&quot; style=&quot;font-size: 15px&quot;&gt;frame 1&lt;/font&gt;" style="text;html=1;strokeColor=none;fillColor=none;align=center;verticalAlign=middle;whiteSpace=wrap;rounded=0;shadow=0;" vertex="1" parent="1">
          <mxGeometry x="195" y="40" width="50" height="25" as="geometry" />
        </mxCell>
        <mxCell id="kN6tLRm5acW-3HaWJ-zb-33" value="&lt;font face=&quot;Times New Roman&quot; style=&quot;font-size: 15px&quot;&gt;frame 2&lt;/font&gt;" style="text;html=1;strokeColor=none;fillColor=none;align=center;verticalAlign=middle;whiteSpace=wrap;rounded=0;shadow=0;" vertex="1" parent="1">
          <mxGeometry x="475" y="40" width="50" height="25" as="geometry" />
        </mxCell>
        <mxCell id="kN6tLRm5acW-3HaWJ-zb-34" value="&lt;font style=&quot;font-size: 11px&quot;&gt;4&lt;/font&gt;" style="text;html=1;strokeColor=none;fillColor=none;align=center;verticalAlign=middle;whiteSpace=wrap;rounded=0;shadow=0;fontFamily=Times New Roman;fontSize=15;" vertex="1" parent="1">
          <mxGeometry x="270" y="120" width="20" height="20" as="geometry" />
        </mxCell>
        <mxCell id="kN6tLRm5acW-3HaWJ-zb-35" value="&lt;font style=&quot;font-size: 11px&quot;&gt;2&lt;/font&gt;" style="text;html=1;strokeColor=none;fillColor=none;align=center;verticalAlign=middle;whiteSpace=wrap;rounded=0;shadow=0;fontFamily=Times New Roman;fontSize=15;" vertex="1" parent="1">
          <mxGeometry x="270" y="135" width="20" height="20" as="geometry" />
        </mxCell>
        <mxCell id="kN6tLRm5acW-3HaWJ-zb-36" value="&lt;font style=&quot;font-size: 11px&quot;&gt;5&lt;/font&gt;" style="text;html=1;strokeColor=none;fillColor=none;align=center;verticalAlign=middle;whiteSpace=wrap;rounded=0;shadow=0;fontFamily=Times New Roman;fontSize=15;" vertex="1" parent="1">
          <mxGeometry x="270" y="152.5" width="20" height="20" as="geometry" />
        </mxCell>
        <mxCell id="kN6tLRm5acW-3HaWJ-zb-37" value="&lt;font style=&quot;font-size: 11px&quot;&gt;4&lt;/font&gt;" style="text;html=1;strokeColor=none;fillColor=none;align=center;verticalAlign=middle;whiteSpace=wrap;rounded=0;shadow=0;fontFamily=Times New Roman;fontSize=15;" vertex="1" parent="1">
          <mxGeometry x="260" y="190" width="20" height="20" as="geometry" />
        </mxCell>
        <mxCell id="kN6tLRm5acW-3HaWJ-zb-38" value="&lt;font style=&quot;font-size: 11px&quot;&gt;0&lt;/font&gt;" style="text;html=1;strokeColor=none;fillColor=none;align=center;verticalAlign=middle;whiteSpace=wrap;rounded=0;shadow=0;fontFamily=Times New Roman;fontSize=15;" vertex="1" parent="1">
          <mxGeometry x="260" y="207.5" width="20" height="20" as="geometry" />
        </mxCell>
        <mxCell id="kN6tLRm5acW-3HaWJ-zb-39" value="&lt;font style=&quot;font-size: 11px&quot;&gt;2&lt;/font&gt;" style="text;html=1;strokeColor=none;fillColor=none;align=center;verticalAlign=middle;whiteSpace=wrap;rounded=0;shadow=0;fontFamily=Times New Roman;fontSize=15;" vertex="1" parent="1">
          <mxGeometry x="260" y="227.5" width="20" height="20" as="geometry" />
        </mxCell>
        <mxCell id="kN6tLRm5acW-3HaWJ-zb-40" value="&lt;font style=&quot;font-size: 11px&quot;&gt;4&lt;/font&gt;" style="text;html=1;strokeColor=none;fillColor=none;align=center;verticalAlign=middle;whiteSpace=wrap;rounded=0;shadow=0;fontFamily=Times New Roman;fontSize=15;" vertex="1" parent="1">
          <mxGeometry x="270" y="260" width="20" height="20" as="geometry" />
        </mxCell>
        <mxCell id="kN6tLRm5acW-3HaWJ-zb-41" value="&lt;font style=&quot;font-size: 11px&quot;&gt;5&lt;/font&gt;" style="text;html=1;strokeColor=none;fillColor=none;align=center;verticalAlign=middle;whiteSpace=wrap;rounded=0;shadow=0;fontFamily=Times New Roman;fontSize=15;" vertex="1" parent="1">
          <mxGeometry x="270" y="280" width="20" height="20" as="geometry" />
        </mxCell>
        <mxCell id="kN6tLRm5acW-3HaWJ-zb-44" value="&lt;font style=&quot;font-size: 11px&quot;&gt;6&lt;/font&gt;" style="text;html=1;strokeColor=none;fillColor=none;align=center;verticalAlign=middle;whiteSpace=wrap;rounded=0;shadow=0;fontFamily=Times New Roman;fontSize=15;" vertex="1" parent="1">
          <mxGeometry x="270" y="300" width="20" height="20" as="geometry" />
        </mxCell>
      </root>
    </mxGraphModel>
  </diagram>
</mxfile>
